<mxfile host="app.diagrams.net" modified="2023-08-29T01:05:41.300Z" agent="Mozilla/5.0 (Windows NT 10.0; Win64; x64) AppleWebKit/537.36 (KHTML, like Gecko) Chrome/116.0.0.0 Safari/537.36" etag="cpNOecUk8qCIVMGVawvJ" version="21.6.9" type="device">
  <diagram name="Página-1" id="6xgXr0f-sADeGmXi46zA">
    <mxGraphModel dx="880" dy="478" grid="1" gridSize="10" guides="1" tooltips="1" connect="1" arrows="1" fold="1" page="1" pageScale="1" pageWidth="827" pageHeight="1169" math="0" shadow="0">
      <root>
        <mxCell id="0" />
        <mxCell id="1" parent="0" />
        <mxCell id="kobgR3uAMVr7NP3pwcwg-1" value="Inicio" style="rounded=1;whiteSpace=wrap;html=1;" vertex="1" parent="1">
          <mxGeometry x="354" y="20" width="120" height="60" as="geometry" />
        </mxCell>
        <mxCell id="kobgR3uAMVr7NP3pwcwg-2" value="Pegue uma panela adequada" style="rounded=0;whiteSpace=wrap;html=1;" vertex="1" parent="1">
          <mxGeometry x="354" y="120" width="120" height="60" as="geometry" />
        </mxCell>
        <mxCell id="kobgR3uAMVr7NP3pwcwg-3" value="" style="endArrow=classic;html=1;rounded=0;exitX=0.5;exitY=1;exitDx=0;exitDy=0;entryX=0.5;entryY=0;entryDx=0;entryDy=0;" edge="1" parent="1" source="kobgR3uAMVr7NP3pwcwg-1" target="kobgR3uAMVr7NP3pwcwg-2">
          <mxGeometry width="50" height="50" relative="1" as="geometry">
            <mxPoint x="390" y="280" as="sourcePoint" />
            <mxPoint x="440" y="230" as="targetPoint" />
          </mxGeometry>
        </mxCell>
        <mxCell id="kobgR3uAMVr7NP3pwcwg-4" value="Para uma pessoa?" style="rhombus;whiteSpace=wrap;html=1;" vertex="1" parent="1">
          <mxGeometry x="374" y="220" width="80" height="80" as="geometry" />
        </mxCell>
        <mxCell id="kobgR3uAMVr7NP3pwcwg-5" value="" style="endArrow=classic;html=1;rounded=0;exitX=0.5;exitY=1;exitDx=0;exitDy=0;entryX=0.5;entryY=0;entryDx=0;entryDy=0;" edge="1" parent="1" source="kobgR3uAMVr7NP3pwcwg-2" target="kobgR3uAMVr7NP3pwcwg-4">
          <mxGeometry width="50" height="50" relative="1" as="geometry">
            <mxPoint x="390" y="280" as="sourcePoint" />
            <mxPoint x="440" y="230" as="targetPoint" />
          </mxGeometry>
        </mxCell>
        <mxCell id="kobgR3uAMVr7NP3pwcwg-6" value="Sim" style="text;html=1;strokeColor=none;fillColor=none;align=center;verticalAlign=middle;whiteSpace=wrap;rounded=0;" vertex="1" parent="1">
          <mxGeometry x="500" y="240" width="60" height="30" as="geometry" />
        </mxCell>
        <mxCell id="kobgR3uAMVr7NP3pwcwg-7" value="Não" style="text;html=1;strokeColor=none;fillColor=none;align=center;verticalAlign=middle;whiteSpace=wrap;rounded=0;" vertex="1" parent="1">
          <mxGeometry x="280" y="240" width="60" height="30" as="geometry" />
        </mxCell>
        <mxCell id="kobgR3uAMVr7NP3pwcwg-8" value="Pegue 1 pacote" style="rounded=0;whiteSpace=wrap;html=1;" vertex="1" parent="1">
          <mxGeometry x="540" y="310" width="120" height="60" as="geometry" />
        </mxCell>
        <mxCell id="kobgR3uAMVr7NP3pwcwg-9" value="" style="endArrow=classic;html=1;rounded=0;exitX=1;exitY=0.5;exitDx=0;exitDy=0;entryX=0.5;entryY=0;entryDx=0;entryDy=0;" edge="1" parent="1" source="kobgR3uAMVr7NP3pwcwg-4" target="kobgR3uAMVr7NP3pwcwg-8">
          <mxGeometry width="50" height="50" relative="1" as="geometry">
            <mxPoint x="390" y="280" as="sourcePoint" />
            <mxPoint x="440" y="230" as="targetPoint" />
            <Array as="points">
              <mxPoint x="600" y="260" />
            </Array>
          </mxGeometry>
        </mxCell>
        <mxCell id="kobgR3uAMVr7NP3pwcwg-10" value="Pegue a quantidade de pacotes igual ao número de pessoas" style="rounded=0;whiteSpace=wrap;html=1;" vertex="1" parent="1">
          <mxGeometry x="160" y="310" width="120" height="60" as="geometry" />
        </mxCell>
        <mxCell id="kobgR3uAMVr7NP3pwcwg-11" value="" style="endArrow=classic;html=1;rounded=0;exitX=0;exitY=0.5;exitDx=0;exitDy=0;entryX=0.5;entryY=0;entryDx=0;entryDy=0;" edge="1" parent="1" source="kobgR3uAMVr7NP3pwcwg-4" target="kobgR3uAMVr7NP3pwcwg-10">
          <mxGeometry width="50" height="50" relative="1" as="geometry">
            <mxPoint x="390" y="280" as="sourcePoint" />
            <mxPoint x="440" y="230" as="targetPoint" />
            <Array as="points">
              <mxPoint x="220" y="260" />
            </Array>
          </mxGeometry>
        </mxCell>
        <mxCell id="kobgR3uAMVr7NP3pwcwg-12" value="Separe a quantidade de água" style="rounded=0;whiteSpace=wrap;html=1;" vertex="1" parent="1">
          <mxGeometry x="354" y="525" width="120" height="60" as="geometry" />
        </mxCell>
        <mxCell id="kobgR3uAMVr7NP3pwcwg-13" value="" style="endArrow=classic;html=1;rounded=0;exitX=0.5;exitY=1;exitDx=0;exitDy=0;entryX=0;entryY=0.5;entryDx=0;entryDy=0;" edge="1" parent="1" source="kobgR3uAMVr7NP3pwcwg-10" target="kobgR3uAMVr7NP3pwcwg-12">
          <mxGeometry width="50" height="50" relative="1" as="geometry">
            <mxPoint x="390" y="440" as="sourcePoint" />
            <mxPoint x="440" y="390" as="targetPoint" />
            <Array as="points">
              <mxPoint x="220" y="555" />
            </Array>
          </mxGeometry>
        </mxCell>
        <mxCell id="kobgR3uAMVr7NP3pwcwg-14" value="" style="endArrow=classic;html=1;rounded=0;exitX=0.5;exitY=1;exitDx=0;exitDy=0;entryX=1;entryY=0.5;entryDx=0;entryDy=0;" edge="1" parent="1" source="kobgR3uAMVr7NP3pwcwg-8" target="kobgR3uAMVr7NP3pwcwg-12">
          <mxGeometry width="50" height="50" relative="1" as="geometry">
            <mxPoint x="390" y="440" as="sourcePoint" />
            <mxPoint x="440" y="390" as="targetPoint" />
            <Array as="points">
              <mxPoint x="600" y="555" />
            </Array>
          </mxGeometry>
        </mxCell>
        <mxCell id="kobgR3uAMVr7NP3pwcwg-15" value="Ligar o fogão" style="rounded=0;whiteSpace=wrap;html=1;" vertex="1" parent="1">
          <mxGeometry x="354" y="660" width="120" height="60" as="geometry" />
        </mxCell>
        <mxCell id="kobgR3uAMVr7NP3pwcwg-16" value="" style="endArrow=classic;html=1;rounded=0;exitX=0.5;exitY=1;exitDx=0;exitDy=0;entryX=0.5;entryY=0;entryDx=0;entryDy=0;" edge="1" parent="1" source="kobgR3uAMVr7NP3pwcwg-12" target="kobgR3uAMVr7NP3pwcwg-15">
          <mxGeometry width="50" height="50" relative="1" as="geometry">
            <mxPoint x="390" y="580" as="sourcePoint" />
            <mxPoint x="440" y="530" as="targetPoint" />
          </mxGeometry>
        </mxCell>
        <mxCell id="kobgR3uAMVr7NP3pwcwg-17" value="Coloque a panela no fogão" style="rounded=0;whiteSpace=wrap;html=1;" vertex="1" parent="1">
          <mxGeometry x="354" y="780" width="120" height="60" as="geometry" />
        </mxCell>
        <mxCell id="kobgR3uAMVr7NP3pwcwg-18" value="" style="endArrow=classic;html=1;rounded=0;exitX=0.5;exitY=1;exitDx=0;exitDy=0;entryX=0.5;entryY=0;entryDx=0;entryDy=0;" edge="1" parent="1" source="kobgR3uAMVr7NP3pwcwg-15" target="kobgR3uAMVr7NP3pwcwg-17">
          <mxGeometry width="50" height="50" relative="1" as="geometry">
            <mxPoint x="390" y="710" as="sourcePoint" />
            <mxPoint x="440" y="660" as="targetPoint" />
          </mxGeometry>
        </mxCell>
        <mxCell id="kobgR3uAMVr7NP3pwcwg-19" value="Coloque a água" style="rounded=0;whiteSpace=wrap;html=1;" vertex="1" parent="1">
          <mxGeometry x="354" y="870" width="120" height="60" as="geometry" />
        </mxCell>
        <mxCell id="kobgR3uAMVr7NP3pwcwg-20" value="" style="endArrow=classic;html=1;rounded=0;exitX=0.5;exitY=1;exitDx=0;exitDy=0;entryX=0.5;entryY=0;entryDx=0;entryDy=0;" edge="1" parent="1" source="kobgR3uAMVr7NP3pwcwg-17" target="kobgR3uAMVr7NP3pwcwg-19">
          <mxGeometry width="50" height="50" relative="1" as="geometry">
            <mxPoint x="390" y="710" as="sourcePoint" />
            <mxPoint x="440" y="660" as="targetPoint" />
          </mxGeometry>
        </mxCell>
        <mxCell id="kobgR3uAMVr7NP3pwcwg-21" value="Coloque a água" style="rounded=0;whiteSpace=wrap;html=1;" vertex="1" parent="1">
          <mxGeometry x="354" y="870" width="120" height="60" as="geometry" />
        </mxCell>
        <mxCell id="kobgR3uAMVr7NP3pwcwg-22" value="Coloque o(s) macarrão(ões)" style="rounded=0;whiteSpace=wrap;html=1;" vertex="1" parent="1">
          <mxGeometry x="354" y="960" width="120" height="60" as="geometry" />
        </mxCell>
        <mxCell id="kobgR3uAMVr7NP3pwcwg-23" value="" style="endArrow=classic;html=1;rounded=0;exitX=0.5;exitY=1;exitDx=0;exitDy=0;entryX=0.5;entryY=0;entryDx=0;entryDy=0;" edge="1" parent="1" source="kobgR3uAMVr7NP3pwcwg-21" target="kobgR3uAMVr7NP3pwcwg-22">
          <mxGeometry width="50" height="50" relative="1" as="geometry">
            <mxPoint x="390" y="820" as="sourcePoint" />
            <mxPoint x="440" y="770" as="targetPoint" />
          </mxGeometry>
        </mxCell>
        <mxCell id="kobgR3uAMVr7NP3pwcwg-24" value="Coloque o tempero" style="rounded=0;whiteSpace=wrap;html=1;" vertex="1" parent="1">
          <mxGeometry x="354" y="1050" width="120" height="60" as="geometry" />
        </mxCell>
        <mxCell id="kobgR3uAMVr7NP3pwcwg-25" value="Aguarde 3 minutos após a água começar a fever" style="rounded=0;whiteSpace=wrap;html=1;" vertex="1" parent="1">
          <mxGeometry x="354" y="1160" width="120" height="60" as="geometry" />
        </mxCell>
        <mxCell id="kobgR3uAMVr7NP3pwcwg-26" value="" style="endArrow=classic;html=1;rounded=0;exitX=0.5;exitY=1;exitDx=0;exitDy=0;entryX=0.5;entryY=0;entryDx=0;entryDy=0;" edge="1" parent="1" source="kobgR3uAMVr7NP3pwcwg-22" target="kobgR3uAMVr7NP3pwcwg-24">
          <mxGeometry width="50" height="50" relative="1" as="geometry">
            <mxPoint x="390" y="1150" as="sourcePoint" />
            <mxPoint x="440" y="1100" as="targetPoint" />
          </mxGeometry>
        </mxCell>
        <mxCell id="kobgR3uAMVr7NP3pwcwg-27" value="" style="endArrow=classic;html=1;rounded=0;exitX=0.5;exitY=1;exitDx=0;exitDy=0;entryX=0.5;entryY=0;entryDx=0;entryDy=0;" edge="1" parent="1" source="kobgR3uAMVr7NP3pwcwg-24" target="kobgR3uAMVr7NP3pwcwg-25">
          <mxGeometry width="50" height="50" relative="1" as="geometry">
            <mxPoint x="390" y="1150" as="sourcePoint" />
            <mxPoint x="440" y="1100" as="targetPoint" />
          </mxGeometry>
        </mxCell>
        <mxCell id="kobgR3uAMVr7NP3pwcwg-28" value="Desligue o fogão" style="rounded=0;whiteSpace=wrap;html=1;" vertex="1" parent="1">
          <mxGeometry x="354" y="1270" width="120" height="60" as="geometry" />
        </mxCell>
        <mxCell id="kobgR3uAMVr7NP3pwcwg-29" value="" style="endArrow=classic;html=1;rounded=0;exitX=0.5;exitY=1;exitDx=0;exitDy=0;entryX=0.5;entryY=0;entryDx=0;entryDy=0;" edge="1" parent="1" source="kobgR3uAMVr7NP3pwcwg-25" target="kobgR3uAMVr7NP3pwcwg-28">
          <mxGeometry width="50" height="50" relative="1" as="geometry">
            <mxPoint x="390" y="1150" as="sourcePoint" />
            <mxPoint x="440" y="1100" as="targetPoint" />
          </mxGeometry>
        </mxCell>
        <mxCell id="kobgR3uAMVr7NP3pwcwg-30" value="Sirva!!!" style="rounded=0;whiteSpace=wrap;html=1;" vertex="1" parent="1">
          <mxGeometry x="354" y="1370" width="120" height="60" as="geometry" />
        </mxCell>
        <mxCell id="kobgR3uAMVr7NP3pwcwg-31" value="" style="endArrow=classic;html=1;rounded=0;exitX=0.5;exitY=1;exitDx=0;exitDy=0;entryX=0.5;entryY=0;entryDx=0;entryDy=0;" edge="1" parent="1" source="kobgR3uAMVr7NP3pwcwg-28" target="kobgR3uAMVr7NP3pwcwg-30">
          <mxGeometry width="50" height="50" relative="1" as="geometry">
            <mxPoint x="390" y="1370" as="sourcePoint" />
            <mxPoint x="440" y="1320" as="targetPoint" />
          </mxGeometry>
        </mxCell>
        <mxCell id="kobgR3uAMVr7NP3pwcwg-32" value="Fim" style="rounded=1;whiteSpace=wrap;html=1;" vertex="1" parent="1">
          <mxGeometry x="354" y="1480" width="120" height="60" as="geometry" />
        </mxCell>
        <mxCell id="kobgR3uAMVr7NP3pwcwg-33" value="" style="endArrow=classic;html=1;rounded=0;exitX=0.5;exitY=1;exitDx=0;exitDy=0;entryX=0.5;entryY=0;entryDx=0;entryDy=0;" edge="1" parent="1" source="kobgR3uAMVr7NP3pwcwg-30" target="kobgR3uAMVr7NP3pwcwg-32">
          <mxGeometry width="50" height="50" relative="1" as="geometry">
            <mxPoint x="390" y="1370" as="sourcePoint" />
            <mxPoint x="440" y="1320" as="targetPoint" />
          </mxGeometry>
        </mxCell>
      </root>
    </mxGraphModel>
  </diagram>
</mxfile>
